<svg xmlns="http://www.w3.org/2000/svg" xmlns:xlink="http://www.w3.org/1999/xlink" width="100.0" height="100.0" viewBox="-0.5344429037310725 -1.9581334686279297 5.961444101821094 7.430139799118042" preserveAspectRatio="xMinYMin meet"><g transform="matrix(1,0,0,-1,0,3.5138728618621826)"><g><path fill-rule="evenodd" fill="#66cc99" stroke="#555555" stroke-width="0.14860279598236084" opacity="0.6" d="M 4.99820613861084,0.897224485874176 L 4.955416202545166,0.8985738754272461 L 4.857297391285721,0.9440332307464909 L 4.8755645751953125,0.970711350440979 L 5.0305280685424805,1.0155832767486572 L 5.151810835159724,0.941632228084815 L 4.99820613861084,0.897224485874176 z" /><path fill-rule="evenodd" fill="#66cc99" stroke="#555555" stroke-width="0.14860279598236084" opacity="0.6" d="M 4.675343990325928,0.6134338974952698 L 4.692673683166504,0.5978857278823853 L 4.659690856933594,0.42575597763061523 L 4.474621295928955,0.29945477843284607 L 4.405179977416992,0.13730792701244354 L 4.2840118408203125,0.17649753391742706 L 4.219549179077148,-0.08816927671432495 L 4.104218482971191,-0.09943068027496338 L 4.016161918640137,-0.34333255887031555 L 4.033369064331055,-0.3678814470767975 L 4.099016189575195,-0.4965684413909912 L 3.998145580291748,-0.6745003461837769 L 3.877824068069458,-0.893932580947876 L 3.8124680519104004,-1.0066033601760864 L 3.5644330978393555,-1.1238833665847778 L 3.5215492248535156,-1.1529871225357056 L 3.421786308288574,-1.1763615608215332 L 3.3742740154266357,-1.183276653289795 L 3.1901450157165527,-1.3590167760849 L 3.2306864261627197,-1.4658856391906738 L 3.3090527057647705,-1.5758490562438965 L 3.2413973808288574,-1.6829431056976318 L 3.1811442375183105,-1.6769543886184692 L 3.1235435009002686,-1.6474732160568237 L 3.0089499950408936,-1.4765621423721313 L 2.764240264892578,-1.4553800821304321 L 2.666996479034424,-1.4136487245559692 L 2.4690518379211426,-1.484397053718567 L 2.217566728591919,-1.4648163318634033 L 2.0374746322631836,-1.65605890750885 L 2.0045559406280518,-1.6487159729003906 L 1.8693112134933472,-1.4267797470092773 L 1.7123738527297974,-1.4453322887420654 L 1.5786144733428955,-1.5354290008544922 L 1.3421626091003418,-1.5699059963226318 L 1.3321964740753174,-1.5408411026000977 L 1.2787981033325195,-1.3108391761779785 L 1.2174158096313477,-1.2765114307403564 L 1.0868149995803833,-1.1173139810562134 L 1.0304802656173706,-0.8886638283729553 L 0.9211093783378601,-0.8072466850280762 L 0.8366391658782959,-0.7639581561088562 L 0.7108203172683716,-0.6443247199058533 L 0.5576785802841187,-0.46025845408439636 L 0.4617973864078522,-0.3720414340496063 L 0.459652841091156,-0.25348666310310364 L 0.650963544845581,-0.11757829040288925 L 0.5080554485321045,0.03939395397901535 L 0.2930319905281067,0.0017593008233234286 L 0.462397038936615,0.1661924123764038 L 0.42723691254426943,0.1907219045708978 L 0.4470794200897217,0.2088553011417389 L 0.6970615386962891,0.14929884672164917 L 0.7039129137992859,0.10043258965015411 L 0.6630591154098511,-0.0023229068610817194 L 0.7412348389625549,0.07601296156644821 L 0.837121844291687,0.1995062232017517 L 0.9444261193275452,0.22682039439678192 L 1.0784151554107666,0.011674011126160622 L 1.0753108263015747,0.0025515106972306967 L 1.008601188659668,-0.1182732805609703 L 0.856555700302124,-0.21119141578674316 L 0.6482656002044678,-0.3041677176952362 L 0.8464163541793823,-0.324426531791687 L 0.9230011105537415,-0.3292689621448517 L 1.1129299402236938,-0.2430974841117859 L 1.284781575202942,-0.39379969239234924 L 1.192078948020935,-0.5672463774681091 L 1.0556421279907227,-0.7839823961257935 L 1.2199060916900635,-0.9918941855430603 L 1.0664005279541016,-0.7797044515609741 L 1.1657973527908325,-0.6850774884223938 L 1.274133324623108,-0.6711643934249878 L 1.3171272277832031,-0.4959438741207123 L 1.4555943012237549,-0.27827319502830505 L 1.5884371995925903,-0.36533603072166443 L 1.6217973232269287,-0.447265625 L 1.6996618509292603,-0.2378409504890442 L 1.7559291124343872,-0.2255474179983139 L 1.8394076824188232,-0.19635066390037537 L 2.0207931995391846,-0.2118396759033203 L 1.9583326578140259,-0.4579426646232605 L 2.1452558040618896,-0.5933464765548706 L 2.1293253898620605,-0.7087514400482178 L 2.354992151260376,-0.6072583198547363 L 2.500283718109131,-0.7868335247039795 L 2.633486032485962,-0.59637451171875 L 2.7720963954925537,-0.5389168858528137 L 2.9660210609436035,-0.6211398243904114 L 3.0384936332702637,-0.5992114543914795 L 2.807827949523926,-0.4694003760814667 L 2.718189239501953,-0.3456156849861145 L 2.7027459144592285,-0.2624250650405884 L 2.9375762939453125,-0.12047568708658218 L 2.9642624855041504,-0.15530341863632202 L 3.026926279067993,-0.15966247022151947 L 3.0876047611236572,-0.1727220118045807 L 3.173015832901001,-0.17846213281154633 L 3.209110975265503,-0.1820305585861206 L 3.245851755142212,-0.18452435731887817 L 3.441821336746216,-0.3203231394290924 L 3.3556981086730957,-0.46568214893341064 L 3.5282320976257324,-0.4071041941642761 L 3.6619222164154053,-0.5377443432807922 L 3.6578617095947266,-0.6727494597434998 L 3.731712579727173,-0.552287220954895 L 3.850006580352783,-0.315157413482666 L 4.0314507484436035,-0.26207518577575684 L 3.807584524154663,-0.15506447851657867 L 3.7616305351257324,0.014755803160369396 L 3.9734981060028076,0.07279359549283981 L 3.997323989868164,0.17083540558815002 L 4.088423728942871,0.4009464383125305 L 4.307939529418945,0.4836789667606354 L 4.408825397491455,0.6326319575309753 L 4.57382345199585,0.6467918157577515 L 4.592741047760253,0.6598287098803072 L 4.675343990325928,0.6134338974952698 z" /><path fill-rule="evenodd" fill="#66cc99" stroke="#555555" stroke-width="0.14860279598236084" opacity="0.6" d="M 0.14802278578281403,0.5747489929199219 L 0.10352800786495209,0.7158997058868408 L 0.06205500289797783,0.8752738833427429 L 0.014458037912845612,0.9667258262634277 L 0.040507697222107314,1.0131371825986935 L 0.08357743173837662,0.963599443435669 L 0.25758448243141174,0.8372968435287476 L 0.3156258165836334,0.5966218709945679 L 0.1582862964949609,0.40981149184307525 L 0.14802278578281403,0.5747489929199219 z" /><path fill-rule="evenodd" fill="#66cc99" stroke="#555555" stroke-width="0.14860279598236084" opacity="0.6" d="M -0.2336578369140625,1.298344612121582 L -0.2592525408007747,1.341522210775797 L -0.16285894811153412,1.2784030437469482 L -0.15465707762061157,1.270163015396359 L -0.2336578369140625,1.298344612121582 z" /><path fill-rule="evenodd" fill="#66cc99" stroke="#555555" stroke-width="0.14860279598236084" opacity="0.6" d="M -0.08133959025144577,1.9544343948364258 L -0.04126480123856913,2.068426684605838 L 0.06734120845794678,1.9887993335723877 L 0.05868512764573097,1.901381492614746 L -0.005793746684307691,1.8246476919255015 L -0.08133959025144577,1.9544343948364258 z" /><path fill-rule="evenodd" fill="#66cc99" stroke="#555555" stroke-width="0.14860279598236084" opacity="0.6" d="M 1.4137930870056152,4.2711310386657715 L 1.31706702709198,4.430232524871826 L 1.493295431137085,4.580264091491699 L 1.485514760017395,4.653037071228027 L 1.694820761680603,4.702343940734863 L 1.8030532598495483,4.716117858886719 L 1.998105525970459,4.739724636077881 L 2.022329330444336,4.916075706481934 L 2.131439447402954,5.042381286621094 L 2.369375705718994,5.100739002227783 L 2.448859214782715,5.1968159675598145 L 2.67049241065979,5.133117198944092 L 2.7247300148010254,5.1482253074646 L 2.822721242904663,5.170132637023926 L 2.9453248977661133,5.054694652557373 L 3.1833791732788086,4.992177963256836 L 3.271965503692627,4.972513675689697 L 3.391141891479492,4.740304470062256 L 3.465585708618164,4.7010064125061035 L 3.5798583030700684,4.663152694702148 L 3.673328161239624,4.602247714996338 L 3.6919898986816406,4.598785877227783 L 3.82877516746521,4.829843521118164 L 3.9040486812591553,4.805309772491455 L 4.1201395988464355,4.876415252685547 L 4.194447040557861,4.913166046142578 L 4.327098369598389,4.9988603591918945 L 4.4620490074157715,5.012224197387695 L 4.481322288513184,4.8060688972473145 L 4.494869795150809,4.7499088462692605 L 4.4645094871521,4.7936296463012695 L 4.387734413146973,4.9818434715271 L 4.344290256500244,4.963351726531982 L 4.2406840324401855,4.921845436096191 L 4.0342020988464355,4.7511467933654785 L 3.7768759727478027,4.688518524169922 L 3.730367422103882,4.586141586303711 L 3.6945180892944336,4.438220977783203 L 3.5270495414733887,4.256181716918945 L 3.3939871788024902,4.360223293304443 L 3.3150603771209717,4.470705032348633 L 3.236367702484131,4.617238998413086 L 3.1635732650756836,4.686253070831299 L 3.079991102218628,4.854952335357666 L 3.066175937652588,4.868837356567383 L 2.997227907180786,4.942647933959961 L 2.776686668395996,4.920965671539307 L 2.633354902267456,4.960102558135986 L 2.419551134109497,4.965527534484863 L 2.1925454139709473,4.839809894561768 L 2.066621780395508,4.7337541580200195 L 1.9727109670639038,4.489386081695557 L 1.850258708000183,4.492687702178955 L 1.7345995903015137,4.619109630584717 L 1.6589394807815552,4.51703405380249 L 1.7655431032180786,4.311257362365723 L 1.6634433269500732,4.189170837402344 L 1.540444016456604,4.168126106262207 L 1.3147252472086952,4.205351239354454 L 1.4137930870056152,4.2711310386657715 z" /><path fill-rule="evenodd" fill="#66cc99" stroke="#555555" stroke-width="0.14860279598236084" opacity="0.6" d="M 4.53802490234375,4.5710129737854 L 4.533914368914062,4.538265011483316 L 4.505248546600342,4.571411609649658 L 4.521412274966873,4.6398792253636545 L 4.53802490234375,4.5710129737854 z" /><path fill-rule="evenodd" fill="#66cc99" stroke="#555555" stroke-width="0.14860279598236084" opacity="0.6" d="M 5.124292373657227,2.184420108795166 L 5.036879613918313,2.257451633855342 L 5.07562780380249,2.2880585193634033 L 5.1514163449363375,2.2767949363472786 L 5.124292373657227,2.184420108795166 z" /></g></g></svg>