<svg xmlns="http://www.w3.org/2000/svg" xmlns:xlink="http://www.w3.org/1999/xlink" width="100.0" height="100.0" viewBox="-0.7663667917251586 -0.16711839735507966 6.671948039531708 5.164136430273663" preserveAspectRatio="xMinYMin meet"><g transform="matrix(1,0,0,-1,0,4.829899635563503)"><g><path fill-rule="evenodd" fill="#66cc99" stroke="#555555" stroke-width="0.13343896079063416" opacity="0.6" d="M 5.611753940582275,2.563563585281372 L 5.434861660003662,2.4746878147125244 L 5.297544002532959,2.344372510910034 L 5.1550517082214355,2.276254653930664 L 5.1514163449363375,2.2767949363472786 L 5.172695159912109,2.3492631912231445 L 5.261542797088623,2.45261287689209 L 5.063024520874023,2.474853754043579 L 4.913930892944336,2.4512786865234375 L 4.721034049987793,2.6461493968963623 L 4.709546089172363,2.819829225540161 L 4.752566337585449,2.991030693054199 L 4.581230640411377,3.0154671669006348 L 4.6221923828125,3.243842124938965 L 4.456198692321777,3.3678133487701416 L 4.524179458618164,3.5514307022094727 L 4.765539646148682,3.6010866165161133 L 4.705514430999756,3.687756061553955 L 4.850941181182861,3.8690896034240723 L 4.933234214782715,4.051582336425781 L 4.888906955718994,4.211665153503418 L 4.71710205078125,4.170721054077148 L 4.702976703643799,4.159327030181885 L 4.553410530090332,4.07056188583374 L 4.543796062469482,4.068684101104736 L 4.379069805145264,4.109427452087402 L 4.3017377853393555,4.265323638916016 L 4.517030239105225,4.403751850128174 L 4.533914368914062,4.538265011483316 L 4.662752628326416,4.389287948608398 L 4.807836532592773,4.515538692474365 L 4.933175563812256,4.391280651092529 L 4.966914653778076,4.262928009033203 L 4.968865394592285,4.243226528167725 L 4.972339153289795,4.100067138671875 L 4.981109619140625,3.8359429836273193 L 4.991449356079102,3.7436795234680176 L 5.057959079742432,3.5590996742248535 L 5.027545928955078,3.4127309322357178 L 5.073993682861328,3.148629665374756 L 5.107071876525879,3.0936479568481445 L 5.118515491485596,3.0672624111175537 L 5.247100830078125,2.914511203765869 L 5.403733730316162,2.9291751384735107 L 5.5126848220825195,2.847693920135498 L 5.600916385650635,2.791926622390747 L 5.645946502685547,2.756392002105713 L 5.658472061157227,2.7188477516174316 L 5.6472487449646,2.591702938079834 L 5.611753940582275,2.563563585281372 z" /><path fill-rule="evenodd" fill="#66cc99" stroke="#555555" stroke-width="0.13343896079063416" opacity="0.6" d="M 4.945591926574707,2.1853442192077637 L 4.88409423828125,2.0510027408599854 L 5.076365947723389,1.920801043510437 L 5.188103675842285,2.027587652206421 L 5.15122127532959,1.7699867486953735 L 5.141310214996338,1.6194361448287964 L 5.139853477478027,1.5743610858917236 L 5.179342746734619,1.3564186096191406 L 5.306614398956299,1.2418344020843506 L 5.385080814361572,1.000243902206421 L 5.369496822357178,0.9905743598937988 L 5.202972412109375,0.9104369282722473 L 5.151810835159724,0.941632228084815 L 5.21160364151001,0.958918571472168 L 5.337258338928223,0.9930336475372314 L 5.339150905609131,0.9934484958648682 L 5.334675312042236,1.0703314542770386 L 5.248247146606445,1.226456880569458 L 5.156854152679443,1.2378054857254028 L 5.029831409454346,1.3690500259399414 L 5.060288906097412,1.5119463205337524 L 5.074436664581299,1.580337405204773 L 5.098413467407227,1.6535429954528809 L 4.899711608886719,1.8257253170013428 L 4.872192859649658,1.9909788370132446 L 4.7979583740234375,2.2532236576080322 L 4.9673590660095215,2.3155345916748047 L 5.036879613918313,2.257451633855342 L 4.945591926574707,2.1853442192077637 z" /><path fill-rule="evenodd" fill="#66cc99" stroke="#555555" stroke-width="0.13343896079063416" opacity="0.6" d="M 4.725198268890381,0.7511104345321655 L 4.592741047760253,0.6598287098803072 L 4.560887813568115,0.6777194142341614 L 4.459832668304443,0.7418006062507629 L 4.433257579803467,0.7801750898361206 L 4.451138496398926,0.982860803604126 L 4.685462951660156,0.9596608281135559 L 4.729400634765625,1.003288984298706 L 4.857297391285721,0.9440332307464909 L 4.725198268890381,0.7511104345321655 z" /><path fill-rule="evenodd" fill="#66cc99" stroke="#555555" stroke-width="0.13343896079063416" opacity="0.6" d="M 0.34235310554504395,0.11314946413040161 L 0.19663859903812408,0.24595104157924652 L 0.02396063506603241,0.29588305950164795 L -0.10262975841760635,0.20828558504581451 L -0.2891404330730438,0.14165513217449188 L -0.35238558053970337,0.07999078929424286 L -0.3046570420265198,0.14848119020462036 L -0.2344067245721817,0.19023524224758148 L -0.18055319786071777,0.21558044850826263 L -0.058164145797491074,0.28270792961120605 L 0.005099176429212093,0.33356037735939026 L 0.09465903043746948,0.3964592516422272 L 0.1415945440530777,0.38999325037002563 L 0.1582862964949609,0.40981149184307525 L 0.16369083523750305,0.3229590356349945 L 0.251781702041626,0.31312838196754456 L 0.42723691254426943,0.1907219045708978 L 0.34235310554504395,0.11314946413040161 z" /><path fill-rule="evenodd" fill="#66cc99" stroke="#555555" stroke-width="0.13343896079063416" opacity="0.6" d="M 0.024754326790571213,1.0312563180923462 L -0.0358775295317173,1.150830864906311 L -0.15465707762061157,1.270163015396359 L -0.09445498883724213,1.2486873865127563 L 0.07026953995227814,1.066162347793579 L 0.040507697222107314,1.0131371825986935 L 0.024754326790571213,1.0312563180923462 z" /><path fill-rule="evenodd" fill="#66cc99" stroke="#555555" stroke-width="0.13343896079063416" opacity="0.6" d="M -0.3213732838630676,1.3821992874145508 L -0.34729376435279846,1.5122389793395996 L -0.34431231021881104,1.5726758241653442 L -0.32506221532821655,1.6275817155838013 L -0.15118198096752167,1.6743944883346558 L -0.07972357422113419,1.7366666793823242 L -0.005793746684307691,1.8246476919255015 L 0.04674697667360306,1.734383463859558 L 0.016928765922784805,1.569880723953247 L -0.1612847000360489,1.5289218425750732 L -0.3201289772987366,1.5428111553192139 L -0.2800781726837158,1.446177363395691 L -0.27877822518348694,1.3744615316390991 L -0.2592525408007747,1.341522210775797 L -0.3213732838630676,1.3821992874145508 z" /><path fill-rule="evenodd" fill="#66cc99" stroke="#555555" stroke-width="0.13343896079063416" opacity="0.6" d="M -0.1353318691253662,2.137394428253174 L -0.22270938754081726,2.1537222862243652 L -0.39435872435569763,2.295398235321045 L -0.4617314040660858,2.3391945362091064 L -0.4908069968223572,2.353792667388916 L -0.5174928903579712,2.383784294128418 L -0.5192576050758362,2.394521713256836 L -0.513456404209137,2.3981728553771973 L -0.2607708275318146,2.4955458641052246 L -0.039500415325164795,2.554335594177246 L -0.015123529359698296,2.499814033508301 L 0.11190631240606308,2.4042398929595947 L 0.24928730726242065,2.6089673042297363 L 0.3392391502857208,2.682554006576538 L 0.3229834735393524,2.8786890506744385 L 0.21514196693897247,2.9602367877960205 L 0.4079118072986603,3.0075607299804688 L 0.5208771824836731,3.2029531002044678 L 0.3025408983230591,3.3402347564697266 L 0.273319810628891,3.532790422439575 L 0.0748225748538971,3.6883957386016846 L 0.007629898842424154,3.7823874950408936 L -0.04327978938817978,4.002514839172363 L -0.17695412039756775,4.088690280914307 L -0.23720869421958923,4.2944722175598145 L -0.23292110860347748,4.335899829864502 L -0.21945397555828094,4.343337059020996 L -0.18761193752288818,4.3518290519714355 L -0.11423181742429733,4.3599066734313965 L 0.060738205909729004,4.379483222961426 L 0.12142930179834366,4.315878391265869 L 0.1514950692653656,4.259038925170898 L 0.4134587049484253,4.1802568435668945 L 0.5117018222808838,4.224340438842773 L 0.7296653389930725,4.267970085144043 L 0.87009596824646,4.255315780639648 L 1.1132436990737915,4.2139811515808105 L 1.2639578580856323,4.287571430206299 L 1.2772150039672852,4.2115373611450195 L 1.3147252472086952,4.205351239354454 L 1.2087370157241821,4.134976387023926 L 1.1039901971817017,4.150131702423096 L 1.0901384353637695,4.152736663818359 L 1.0604921579360962,4.113504409790039 L 0.8861081600189209,4.016373634338379 L 0.806420087814331,4.015353679656982 L 0.5577138066291809,4.063766956329346 L 0.5393706560134888,4.09392786026001 L 0.4434855878353119,4.032748222351074 L 0.681828498840332,3.9419710636138916 L 0.7783514857292175,3.774399518966675 L 0.8034157156944275,3.743541717529297 L 0.7730884552001953,3.4807538986206055 L 0.8928301334381104,3.433835029602051 L 1.0953716039657593,3.601545572280884 L 1.1875299215316772,3.500176191329956 L 1.0244406461715698,3.3319520950317383 L 1.1610106229782104,3.293870210647583 L 1.176446795463562,3.023948907852173 L 1.0053069591522217,3.0584309101104736 L 0.7990220189094543,3.109771251678467 L 0.7474415302276611,3.18994402885437 L 0.6299532651901245,3.091413974761963 L 0.6541550755500793,3.0183768272399902 L 0.7464799284934998,2.9442152976989746 L 0.9221664071083069,2.783993721008301 L 0.8650593161582947,2.5440752506256104 L 0.7886000275611877,2.450967788696289 L 1.0575661659240723,2.4266817569732666 L 1.0160560607910156,2.6968331336975098 L 1.2552099227905273,2.775261878967285 L 1.304221749305725,2.7023329734802246 L 1.4124795198440552,2.6251001358032227 L 1.3123434782028198,2.4137775897979736 L 1.431199312210083,2.3260042667388916 L 1.2958115339279175,2.106207847595215 L 1.103165626525879,2.0356595516204834 L 0.9342043399810791,2.1367499828338623 L 0.7770509123802185,2.1676571369171143 L 0.6319718956947327,2.342092514038086 L 0.42720353603363037,2.2942118644714355 L 0.21498499810695648,2.291325569152832 L 0.0027072911616414785,2.193504810333252 L -0.04126480123856913,2.068426684605838 L -0.1353318691253662,2.137394428253174 z" /><path fill-rule="evenodd" fill="#66cc99" stroke="#555555" stroke-width="0.13343896079063416" opacity="0.6" d="M 4.534063339233398,4.693467617034912 L 4.521412274966873,4.6398792253636545 L 4.494869795150809,4.7499088462692605 L 4.534063339233398,4.693467617034912 z" /></g></g></svg>