<svg xmlns="http://www.w3.org/2000/svg" xmlns:xlink="http://www.w3.org/1999/xlink" width="100.0" height="100.0" viewBox="-0.7663667917251586 -1.2390033721923828 6.671948039531708 6.467956030368805" preserveAspectRatio="xMinYMin meet"><g transform="matrix(1,0,0,-1,0,3.9899492859840393)"><path fill-rule="evenodd" fill="#66cc99" stroke="#555555" stroke-width="0.13343896079063416" opacity="0.6" d="M 5.6472487449646,2.591702938079834 L 5.611753940582275,2.563563585281372 L 5.434861660003662,2.4746878147125244 L 5.297544002532959,2.344372510910034 L 5.1550517082214355,2.276254653930664 L 5.07562780380249,2.2880585193634033 L 4.945591926574707,2.1853442192077637 L 4.88409423828125,2.0510027408599854 L 5.076365947723389,1.920801043510437 L 5.188103675842285,2.027587652206421 L 5.15122127532959,1.7699867486953735 L 5.141310214996338,1.6194361448287964 L 5.139853477478027,1.5743610858917236 L 5.179342746734619,1.3564186096191406 L 5.306614398956299,1.2418344020843506 L 5.385080814361572,1.000243902206421 L 5.369496822357178,0.9905743598937988 L 5.202972412109375,0.9104369282722473 L 5.0305280685424805,1.0155832767486572 L 4.8755645751953125,0.970711350440979 L 4.725198268890381,0.7511104345321655 L 4.57382345199585,0.6467918157577515 L 4.408825397491455,0.6326319575309753 L 4.307939529418945,0.4836789667606354 L 4.088423728942871,0.4009464383125305 L 3.997323989868164,0.17083540558815002 L 3.9734981060028076,0.07279359549283981 L 3.7616305351257324,0.014755803160369396 L 3.807584524154663,-0.15506447851657867 L 4.0314507484436035,-0.26207518577575684 L 3.850006580352783,-0.315157413482666 L 3.731712579727173,-0.552287220954895 L 3.6578617095947266,-0.6727494597434998 L 3.6619222164154053,-0.5377443432807922 L 3.5282320976257324,-0.4071041941642761 L 3.3556981086730957,-0.46568214893341064 L 3.441821336746216,-0.3203231394290924 L 3.245851755142212,-0.18452435731887817 L 3.209110975265503,-0.1820305585861206 L 3.173015832901001,-0.17846213281154633 L 3.0876047611236572,-0.1727220118045807 L 3.026926279067993,-0.15966247022151947 L 2.9642624855041504,-0.15530341863632202 L 2.9375762939453125,-0.12047568708658218 L 2.7027459144592285,-0.2624250650405884 L 2.718189239501953,-0.3456156849861145 L 2.807827949523926,-0.4694003760814667 L 3.0384936332702637,-0.5992114543914795 L 2.9660210609436035,-0.6211398243904114 L 2.7720963954925537,-0.5389168858528137 L 2.633486032485962,-0.59637451171875 L 2.500283718109131,-0.7868335247039795 L 2.354992151260376,-0.6072583198547363 L 2.1293253898620605,-0.7087514400482178 L 2.1452558040618896,-0.5933464765548706 L 1.9583326578140259,-0.4579426646232605 L 2.0207931995391846,-0.2118396759033203 L 1.8394076824188232,-0.19635066390037537 L 1.7559291124343872,-0.2255474179983139 L 1.6996618509292603,-0.2378409504890442 L 1.6217973232269287,-0.447265625 L 1.5884371995925903,-0.36533603072166443 L 1.4555943012237549,-0.27827319502830505 L 1.3171272277832031,-0.4959438741207123 L 1.274133324623108,-0.6711643934249878 L 1.1657973527908325,-0.6850774884223938 L 1.0664005279541016,-0.7797044515609741 L 1.2199060916900635,-0.9918941855430603 L 1.0556421279907227,-0.7839823961257935 L 1.192078948020935,-0.5672463774681091 L 1.284781575202942,-0.39379969239234924 L 1.1129299402236938,-0.2430974841117859 L 0.9230011105537415,-0.3292689621448517 L 0.8464163541793823,-0.324426531791687 L 0.6482656002044678,-0.3041677176952362 L 0.856555700302124,-0.21119141578674316 L 1.008601188659668,-0.1182732805609703 L 1.0753108263015747,0.0025515106972306967 L 1.0784151554107666,0.011674011126160622 L 0.9444261193275452,0.22682039439678192 L 0.837121844291687,0.1995062232017517 L 0.7412348389625549,0.07601296156644821 L 0.6630591154098511,-0.0023229068610817194 L 0.7039129137992859,0.10043258965015411 L 0.6970615386962891,0.14929884672164917 L 0.4470794200897217,0.2088553011417389 L 0.34235310554504395,0.11314946413040161 L 0.19663859903812408,0.24595104157924652 L 0.02396063506603241,0.29588305950164795 L -0.10262975841760635,0.20828558504581451 L -0.2891404330730438,0.14165513217449188 L -0.35238558053970337,0.07999078929424286 L -0.3046570420265198,0.14848119020462036 L -0.2344067245721817,0.19023524224758148 L -0.18055319786071777,0.21558044850826263 L -0.058164145797491074,0.28270792961120605 L 0.005099176429212093,0.33356037735939026 L 0.09465903043746948,0.3964592516422272 L 0.1415945440530777,0.38999325037002563 L 0.3156258165836334,0.5966218709945679 L 0.25758448243141174,0.8372968435287476 L 0.08357743173837662,0.963599443435669 L 0.024754326790571213,1.0312563180923462 L -0.0358775295317173,1.150830864906311 L -0.16285894811153412,1.2784030437469482 L -0.3213732838630676,1.3821992874145508 L -0.34729376435279846,1.5122389793395996 L -0.34431231021881104,1.5726758241653442 L -0.32506221532821655,1.6275817155838013 L -0.15118198096752167,1.6743944883346558 L -0.07972357422113419,1.7366666793823242 L 0.05868512764573097,1.901381492614746 L 0.06734120845794678,1.9887993335723877 L -0.1353318691253662,2.137394428253174 L -0.22270938754081726,2.1537222862243652 L -0.39435872435569763,2.295398235321045 L -0.4617314040660858,2.3391945362091064 L -0.4908069968223572,2.353792667388916 L -0.5174928903579712,2.383784294128418 L -0.5192576050758362,2.394521713256836 L -0.513456404209137,2.3981728553771973 L -0.2607708275318146,2.4955458641052246 L -0.039500415325164795,2.554335594177246 L -0.015123529359698296,2.499814033508301 L 0.11190631240606308,2.4042398929595947 L 0.24928730726242065,2.6089673042297363 L 0.3392391502857208,2.682554006576538 L 0.3229834735393524,2.8786890506744385 L 0.21514196693897247,2.9602367877960205 L 0.4079118072986603,3.0075607299804688 L 0.5208771824836731,3.2029531002044678 L 0.3025408983230591,3.3402347564697266 L 0.273319810628891,3.532790422439575 L 0.0748225748538971,3.6883957386016846 L 0.007629898842424154,3.7823874950408936 L -0.04327978938817978,4.002514839172363 L -0.17695412039756775,4.088690280914307 L -0.23720869421958923,4.2944722175598145 L -0.23292110860347748,4.335899829864502 L -0.21945397555828094,4.343337059020996 L -0.18761193752288818,4.3518290519714355 L -0.11423181742429733,4.3599066734313965 L 0.060738205909729004,4.379483222961426 L 0.12142930179834366,4.315878391265869 L 0.1514950692653656,4.259038925170898 L 0.4134587049484253,4.1802568435668945 L 0.5117018222808838,4.224340438842773 L 0.7296653389930725,4.267970085144043 L 0.87009596824646,4.255315780639648 L 1.1132436990737915,4.2139811515808105 L 1.2639578580856323,4.287571430206299 L 1.2772150039672852,4.2115373611450195 L 1.540444016456604,4.168126106262207 L 1.6634433269500732,4.189170837402344 L 1.7655431032180786,4.311257362365723 L 1.6589394807815552,4.51703405380249 L 1.7345995903015137,4.619109630584717 L 1.850258708000183,4.492687702178955 L 1.9727109670639038,4.489386081695557 L 2.066621780395508,4.7337541580200195 L 2.1925454139709473,4.839809894561768 L 2.419551134109497,4.965527534484863 L 2.633354902267456,4.960102558135986 L 2.776686668395996,4.920965671539307 L 2.997227907180786,4.942647933959961 L 3.066175937652588,4.868837356567383 L 3.079991102218628,4.854952335357666 L 3.1635732650756836,4.686253070831299 L 3.236367702484131,4.617238998413086 L 3.3150603771209717,4.470705032348633 L 3.3939871788024902,4.360223293304443 L 3.5270495414733887,4.256181716918945 L 3.6945180892944336,4.438220977783203 L 3.730367422103882,4.586141586303711 L 3.7768759727478027,4.688518524169922 L 4.0342020988464355,4.7511467933654785 L 4.2406840324401855,4.921845436096191 L 4.344290256500244,4.963351726531982 L 4.387734413146973,4.9818434715271 L 4.4645094871521,4.7936296463012695 L 4.534063339233398,4.693467617034912 L 4.505248546600342,4.571411609649658 L 4.662752628326416,4.389287948608398 L 4.807836532592773,4.515538692474365 L 4.933175563812256,4.391280651092529 L 4.966914653778076,4.262928009033203 L 4.968865394592285,4.243226528167725 L 4.972339153289795,4.100067138671875 L 4.981109619140625,3.8359429836273193 L 4.991449356079102,3.7436795234680176 L 5.057959079742432,3.5590996742248535 L 5.027545928955078,3.4127309322357178 L 5.073993682861328,3.148629665374756 L 5.107071876525879,3.0936479568481445 L 5.118515491485596,3.0672624111175537 L 5.247100830078125,2.914511203765869 L 5.403733730316162,2.9291751384735107 L 5.5126848220825195,2.847693920135498 L 5.600916385650635,2.791926622390747 L 5.645946502685547,2.756392002105713 L 5.658472061157227,2.7188477516174316 L 5.6472487449646,2.591702938079834 z" /></g></svg>