<svg xmlns="http://www.w3.org/2000/svg" xmlns:xlink="http://www.w3.org/1999/xlink" width="100.0" height="100.0" viewBox="-0.5953193402290344 -1.9581334686279297 6.209660608768463 7.430139799118042" preserveAspectRatio="xMinYMin meet"><g transform="matrix(1,0,0,-1,0,3.5138728618621826)"><path fill-rule="evenodd" fill="#66cc99" stroke="#555555" stroke-width="0.14860279598236084" opacity="0.6" d="M 5.337258338928223,0.9930336475372314 L 5.21160364151001,0.958918571472168 L 4.99820613861084,0.897224485874176 L 4.955416202545166,0.8985738754272461 L 4.729400634765625,1.003288984298706 L 4.685462951660156,0.9596608281135559 L 4.451138496398926,0.982860803604126 L 4.433257579803467,0.7801750898361206 L 4.459832668304443,0.7418006062507629 L 4.560887813568115,0.6777194142341614 L 4.675343990325928,0.6134338974952698 L 4.692673683166504,0.5978857278823853 L 4.659690856933594,0.42575597763061523 L 4.474621295928955,0.29945477843284607 L 4.405179977416992,0.13730792701244354 L 4.2840118408203125,0.17649753391742706 L 4.219549179077148,-0.08816927671432495 L 4.104218482971191,-0.09943068027496338 L 4.016161918640137,-0.34333255887031555 L 4.033369064331055,-0.3678814470767975 L 4.099016189575195,-0.4965684413909912 L 3.998145580291748,-0.6745003461837769 L 3.877824068069458,-0.893932580947876 L 3.8124680519104004,-1.0066033601760864 L 3.5644330978393555,-1.1238833665847778 L 3.5215492248535156,-1.1529871225357056 L 3.421786308288574,-1.1763615608215332 L 3.3742740154266357,-1.183276653289795 L 3.1901450157165527,-1.3590167760849 L 3.2306864261627197,-1.4658856391906738 L 3.3090527057647705,-1.5758490562438965 L 3.2413973808288574,-1.6829431056976318 L 3.1811442375183105,-1.6769543886184692 L 3.1235435009002686,-1.6474732160568237 L 3.0089499950408936,-1.4765621423721313 L 2.764240264892578,-1.4553800821304321 L 2.666996479034424,-1.4136487245559692 L 2.4690518379211426,-1.484397053718567 L 2.217566728591919,-1.4648163318634033 L 2.0374746322631836,-1.65605890750885 L 2.0045559406280518,-1.6487159729003906 L 1.8693112134933472,-1.4267797470092773 L 1.7123738527297974,-1.4453322887420654 L 1.5786144733428955,-1.5354290008544922 L 1.3421626091003418,-1.5699059963226318 L 1.3321964740753174,-1.5408411026000977 L 1.2787981033325195,-1.3108391761779785 L 1.2174158096313477,-1.2765114307403564 L 1.0868149995803833,-1.1173139810562134 L 1.0304802656173706,-0.8886638283729553 L 0.9211093783378601,-0.8072466850280762 L 0.8366391658782959,-0.7639581561088562 L 0.7108203172683716,-0.6443247199058533 L 0.5576785802841187,-0.46025845408439636 L 0.4617973864078522,-0.3720414340496063 L 0.459652841091156,-0.25348666310310364 L 0.650963544845581,-0.11757829040288925 L 0.5080554485321045,0.03939395397901535 L 0.2930319905281067,0.0017593008233234286 L 0.462397038936615,0.1661924123764038 L 0.251781702041626,0.31312838196754456 L 0.16369083523750305,0.3229590356349945 L 0.14802278578281403,0.5747489929199219 L 0.10352800786495209,0.7158997058868408 L 0.06205500289797783,0.8752738833427429 L 0.014458037912845612,0.9667258262634277 L 0.07026953995227814,1.066162347793579 L -0.09445498883724213,1.2486873865127563 L -0.2336578369140625,1.298344612121582 L -0.27877822518348694,1.3744615316390991 L -0.2800781726837158,1.446177363395691 L -0.3201289772987366,1.5428111553192139 L -0.1612847000360489,1.5289218425750732 L 0.016928765922784805,1.569880723953247 L 0.04674697667360306,1.734383463859558 L -0.08133959025144577,1.9544343948364258 L 0.0027072911616414785,2.193504810333252 L 0.21498499810695648,2.291325569152832 L 0.42720353603363037,2.2942118644714355 L 0.6319718956947327,2.342092514038086 L 0.7770509123802185,2.1676571369171143 L 0.9342043399810791,2.1367499828338623 L 1.103165626525879,2.0356595516204834 L 1.2958115339279175,2.106207847595215 L 1.431199312210083,2.3260042667388916 L 1.3123434782028198,2.4137775897979736 L 1.4124795198440552,2.6251001358032227 L 1.304221749305725,2.7023329734802246 L 1.2552099227905273,2.775261878967285 L 1.0160560607910156,2.6968331336975098 L 1.0575661659240723,2.4266817569732666 L 0.7886000275611877,2.450967788696289 L 0.8650593161582947,2.5440752506256104 L 0.9221664071083069,2.783993721008301 L 0.7464799284934998,2.9442152976989746 L 0.6541550755500793,3.0183768272399902 L 0.6299532651901245,3.091413974761963 L 0.7474415302276611,3.18994402885437 L 0.7990220189094543,3.109771251678467 L 1.0053069591522217,3.0584309101104736 L 1.176446795463562,3.023948907852173 L 1.1610106229782104,3.293870210647583 L 1.0244406461715698,3.3319520950317383 L 1.1875299215316772,3.500176191329956 L 1.0953716039657593,3.601545572280884 L 0.8928301334381104,3.433835029602051 L 0.7730884552001953,3.4807538986206055 L 0.8034157156944275,3.743541717529297 L 0.7783514857292175,3.774399518966675 L 0.681828498840332,3.9419710636138916 L 0.4434855878353119,4.032748222351074 L 0.5393706560134888,4.09392786026001 L 0.5577138066291809,4.063766956329346 L 0.806420087814331,4.015353679656982 L 0.8861081600189209,4.016373634338379 L 1.0604921579360962,4.113504409790039 L 1.0901384353637695,4.152736663818359 L 1.1039901971817017,4.150131702423096 L 1.2087370157241821,4.134976387023926 L 1.4137930870056152,4.2711310386657715 L 1.31706702709198,4.430232524871826 L 1.493295431137085,4.580264091491699 L 1.485514760017395,4.653037071228027 L 1.694820761680603,4.702343940734863 L 1.8030532598495483,4.716117858886719 L 1.998105525970459,4.739724636077881 L 2.022329330444336,4.916075706481934 L 2.131439447402954,5.042381286621094 L 2.369375705718994,5.100739002227783 L 2.448859214782715,5.1968159675598145 L 2.67049241065979,5.133117198944092 L 2.7247300148010254,5.1482253074646 L 2.822721242904663,5.170132637023926 L 2.9453248977661133,5.054694652557373 L 3.1833791732788086,4.992177963256836 L 3.271965503692627,4.972513675689697 L 3.391141891479492,4.740304470062256 L 3.465585708618164,4.7010064125061035 L 3.5798583030700684,4.663152694702148 L 3.673328161239624,4.602247714996338 L 3.6919898986816406,4.598785877227783 L 3.82877516746521,4.829843521118164 L 3.9040486812591553,4.805309772491455 L 4.1201395988464355,4.876415252685547 L 4.194447040557861,4.913166046142578 L 4.327098369598389,4.9988603591918945 L 4.4620490074157715,5.012224197387695 L 4.481322288513184,4.8060688972473145 L 4.53802490234375,4.5710129737854 L 4.517030239105225,4.403751850128174 L 4.3017377853393555,4.265323638916016 L 4.379069805145264,4.109427452087402 L 4.543796062469482,4.068684101104736 L 4.553410530090332,4.07056188583374 L 4.702976703643799,4.159327030181885 L 4.71710205078125,4.170721054077148 L 4.888906955718994,4.211665153503418 L 4.933234214782715,4.051582336425781 L 4.850941181182861,3.8690896034240723 L 4.705514430999756,3.687756061553955 L 4.765539646148682,3.6010866165161133 L 4.524179458618164,3.5514307022094727 L 4.456198692321777,3.3678133487701416 L 4.6221923828125,3.243842124938965 L 4.581230640411377,3.0154671669006348 L 4.752566337585449,2.991030693054199 L 4.709546089172363,2.819829225540161 L 4.721034049987793,2.6461493968963623 L 4.913930892944336,2.4512786865234375 L 5.063024520874023,2.474853754043579 L 5.261542797088623,2.45261287689209 L 5.172695159912109,2.3492631912231445 L 5.124292373657227,2.184420108795166 L 4.9673590660095215,2.3155345916748047 L 4.7979583740234375,2.2532236576080322 L 4.872192859649658,1.9909788370132446 L 4.899711608886719,1.8257253170013428 L 5.098413467407227,1.6535429954528809 L 5.074436664581299,1.580337405204773 L 5.060288906097412,1.5119463205337524 L 5.029831409454346,1.3690500259399414 L 5.156854152679443,1.2378054857254028 L 5.248247146606445,1.226456880569458 L 5.334675312042236,1.0703314542770386 L 5.339150905609131,0.9934484958648682 L 5.337258338928223,0.9930336475372314 z" /></g></svg>