<svg xmlns="http://www.w3.org/2000/svg" xmlns:xlink="http://www.w3.org/1999/xlink" width="100.0" height="100.0" viewBox="-0.559078483581543 -1.2308436918258667 6.137178895473481 6.451636669635773" preserveAspectRatio="xMinYMin meet"><g transform="matrix(1,0,0,-1,0,3.9899492859840393)"><path fill-rule="evenodd" fill="#66cc99" stroke="#555555" stroke-width="0.12903273339271545" opacity="0.6" d="M 5.21160364151001,0.958918571472168 L 5.151810835159724,0.941632228084815 L 5.0305280685424805,1.0155832767486572 L 4.8755645751953125,0.970711350440979 L 4.857297391285721,0.9440332307464909 L 4.729400634765625,1.003288984298706 L 4.685462951660156,0.9596608281135559 L 4.451138496398926,0.982860803604126 L 4.433257579803467,0.7801750898361206 L 4.459832668304443,0.7418006062507629 L 4.560887813568115,0.6777194142341614 L 4.592741047760253,0.6598287098803072 L 4.57382345199585,0.6467918157577515 L 4.408825397491455,0.6326319575309753 L 4.307939529418945,0.4836789667606354 L 4.088423728942871,0.4009464383125305 L 3.997323989868164,0.17083540558815002 L 3.9734981060028076,0.07279359549283981 L 3.7616305351257324,0.014755803160369396 L 3.807584524154663,-0.15506447851657867 L 4.0314507484436035,-0.26207518577575684 L 3.850006580352783,-0.315157413482666 L 3.731712579727173,-0.552287220954895 L 3.6578617095947266,-0.6727494597434998 L 3.6619222164154053,-0.5377443432807922 L 3.5282320976257324,-0.4071041941642761 L 3.3556981086730957,-0.46568214893341064 L 3.441821336746216,-0.3203231394290924 L 3.245851755142212,-0.18452435731887817 L 3.209110975265503,-0.1820305585861206 L 3.173015832901001,-0.17846213281154633 L 3.0876047611236572,-0.1727220118045807 L 3.026926279067993,-0.15966247022151947 L 2.9642624855041504,-0.15530341863632202 L 2.9375762939453125,-0.12047568708658218 L 2.7027459144592285,-0.2624250650405884 L 2.718189239501953,-0.3456156849861145 L 2.807827949523926,-0.4694003760814667 L 3.0384936332702637,-0.5992114543914795 L 2.9660210609436035,-0.6211398243904114 L 2.7720963954925537,-0.5389168858528137 L 2.633486032485962,-0.59637451171875 L 2.500283718109131,-0.7868335247039795 L 2.354992151260376,-0.6072583198547363 L 2.1293253898620605,-0.7087514400482178 L 2.1452558040618896,-0.5933464765548706 L 1.9583326578140259,-0.4579426646232605 L 2.0207931995391846,-0.2118396759033203 L 1.8394076824188232,-0.19635066390037537 L 1.7559291124343872,-0.2255474179983139 L 1.6996618509292603,-0.2378409504890442 L 1.6217973232269287,-0.447265625 L 1.5884371995925903,-0.36533603072166443 L 1.4555943012237549,-0.27827319502830505 L 1.3171272277832031,-0.4959438741207123 L 1.274133324623108,-0.6711643934249878 L 1.1657973527908325,-0.6850774884223938 L 1.0664005279541016,-0.7797044515609741 L 1.2199060916900635,-0.9918941855430603 L 1.0556421279907227,-0.7839823961257935 L 1.192078948020935,-0.5672463774681091 L 1.284781575202942,-0.39379969239234924 L 1.1129299402236938,-0.2430974841117859 L 0.9230011105537415,-0.3292689621448517 L 0.8464163541793823,-0.324426531791687 L 0.6482656002044678,-0.3041677176952362 L 0.856555700302124,-0.21119141578674316 L 1.008601188659668,-0.1182732805609703 L 1.0753108263015747,0.0025515106972306967 L 1.0784151554107666,0.011674011126160622 L 0.9444261193275452,0.22682039439678192 L 0.837121844291687,0.1995062232017517 L 0.7412348389625549,0.07601296156644821 L 0.6630591154098511,-0.0023229068610817194 L 0.7039129137992859,0.10043258965015411 L 0.6970615386962891,0.14929884672164917 L 0.4470794200897217,0.2088553011417389 L 0.42723691254426943,0.1907219045708978 L 0.251781702041626,0.31312838196754456 L 0.16369083523750305,0.3229590356349945 L 0.1582862964949609,0.40981149184307525 L 0.3156258165836334,0.5966218709945679 L 0.25758448243141174,0.8372968435287476 L 0.08357743173837662,0.963599443435669 L 0.040507697222107314,1.0131371825986935 L 0.07026953995227814,1.066162347793579 L -0.09445498883724213,1.2486873865127563 L -0.15465707762061157,1.270163015396359 L -0.16285894811153412,1.2784030437469482 L -0.2592525408007747,1.341522210775797 L -0.27877822518348694,1.3744615316390991 L -0.2800781726837158,1.446177363395691 L -0.3201289772987366,1.5428111553192139 L -0.1612847000360489,1.5289218425750732 L 0.016928765922784805,1.569880723953247 L 0.04674697667360306,1.734383463859558 L -0.005793746684307691,1.8246476919255015 L 0.05868512764573097,1.901381492614746 L 0.06734120845794678,1.9887993335723877 L -0.04126480123856913,2.068426684605838 L 0.0027072911616414785,2.193504810333252 L 0.21498499810695648,2.291325569152832 L 0.42720353603363037,2.2942118644714355 L 0.6319718956947327,2.342092514038086 L 0.7770509123802185,2.1676571369171143 L 0.9342043399810791,2.1367499828338623 L 1.103165626525879,2.0356595516204834 L 1.2958115339279175,2.106207847595215 L 1.431199312210083,2.3260042667388916 L 1.3123434782028198,2.4137775897979736 L 1.4124795198440552,2.6251001358032227 L 1.304221749305725,2.7023329734802246 L 1.2552099227905273,2.775261878967285 L 1.0160560607910156,2.6968331336975098 L 1.0575661659240723,2.4266817569732666 L 0.7886000275611877,2.450967788696289 L 0.8650593161582947,2.5440752506256104 L 0.9221664071083069,2.783993721008301 L 0.7464799284934998,2.9442152976989746 L 0.6541550755500793,3.0183768272399902 L 0.6299532651901245,3.091413974761963 L 0.7474415302276611,3.18994402885437 L 0.7990220189094543,3.109771251678467 L 1.0053069591522217,3.0584309101104736 L 1.176446795463562,3.023948907852173 L 1.1610106229782104,3.293870210647583 L 1.0244406461715698,3.3319520950317383 L 1.1875299215316772,3.500176191329956 L 1.0953716039657593,3.601545572280884 L 0.8928301334381104,3.433835029602051 L 0.7730884552001953,3.4807538986206055 L 0.8034157156944275,3.743541717529297 L 0.7783514857292175,3.774399518966675 L 0.681828498840332,3.9419710636138916 L 0.4434855878353119,4.032748222351074 L 0.5393706560134888,4.09392786026001 L 0.5577138066291809,4.063766956329346 L 0.806420087814331,4.015353679656982 L 0.8861081600189209,4.016373634338379 L 1.0604921579360962,4.113504409790039 L 1.0901384353637695,4.152736663818359 L 1.1039901971817017,4.150131702423096 L 1.2087370157241821,4.134976387023926 L 1.3147252472086952,4.205351239354454 L 1.540444016456604,4.168126106262207 L 1.6634433269500732,4.189170837402344 L 1.7655431032180786,4.311257362365723 L 1.6589394807815552,4.51703405380249 L 1.7345995903015137,4.619109630584717 L 1.850258708000183,4.492687702178955 L 1.9727109670639038,4.489386081695557 L 2.066621780395508,4.7337541580200195 L 2.1925454139709473,4.839809894561768 L 2.419551134109497,4.965527534484863 L 2.633354902267456,4.960102558135986 L 2.776686668395996,4.920965671539307 L 2.997227907180786,4.942647933959961 L 3.066175937652588,4.868837356567383 L 3.079991102218628,4.854952335357666 L 3.1635732650756836,4.686253070831299 L 3.236367702484131,4.617238998413086 L 3.3150603771209717,4.470705032348633 L 3.3939871788024902,4.360223293304443 L 3.5270495414733887,4.256181716918945 L 3.6945180892944336,4.438220977783203 L 3.730367422103882,4.586141586303711 L 3.7768759727478027,4.688518524169922 L 4.0342020988464355,4.7511467933654785 L 4.2406840324401855,4.921845436096191 L 4.344290256500244,4.963351726531982 L 4.387734413146973,4.9818434715271 L 4.4645094871521,4.7936296463012695 L 4.494869795150809,4.7499088462692605 L 4.521412274966873,4.6398792253636545 L 4.505248546600342,4.571411609649658 L 4.533914368914062,4.538265011483316 L 4.517030239105225,4.403751850128174 L 4.3017377853393555,4.265323638916016 L 4.379069805145264,4.109427452087402 L 4.543796062469482,4.068684101104736 L 4.553410530090332,4.07056188583374 L 4.702976703643799,4.159327030181885 L 4.71710205078125,4.170721054077148 L 4.888906955718994,4.211665153503418 L 4.933234214782715,4.051582336425781 L 4.850941181182861,3.8690896034240723 L 4.705514430999756,3.687756061553955 L 4.765539646148682,3.6010866165161133 L 4.524179458618164,3.5514307022094727 L 4.456198692321777,3.3678133487701416 L 4.6221923828125,3.243842124938965 L 4.581230640411377,3.0154671669006348 L 4.752566337585449,2.991030693054199 L 4.709546089172363,2.819829225540161 L 4.721034049987793,2.6461493968963623 L 4.913930892944336,2.4512786865234375 L 5.063024520874023,2.474853754043579 L 5.261542797088623,2.45261287689209 L 5.172695159912109,2.3492631912231445 L 5.1514163449363375,2.2767949363472786 L 5.07562780380249,2.2880585193634033 L 5.036879613918313,2.257451633855342 L 4.9673590660095215,2.3155345916748047 L 4.7979583740234375,2.2532236576080322 L 4.872192859649658,1.9909788370132446 L 4.899711608886719,1.8257253170013428 L 5.098413467407227,1.6535429954528809 L 5.074436664581299,1.580337405204773 L 5.060288906097412,1.5119463205337524 L 5.029831409454346,1.3690500259399414 L 5.156854152679443,1.2378054857254028 L 5.248247146606445,1.226456880569458 L 5.334675312042236,1.0703314542770386 L 5.339150905609131,0.9934484958648682 L 5.337258338928223,0.9930336475372314 L 5.21160364151001,0.958918571472168 z" /></g></svg>